<svg xmlns="http://www.w3.org/2000/svg" viewBox="0 0 440.79 413.61"><defs><style>.cls-1{fill:#324ca2;}</style></defs><g id="Layer_2" data-name="Layer 2"><g id="svg2"><path id="path24" class="cls-1" d="M416.63,160.8a82.19,82.19,0,0,0-59.11-25.19c-.61,0-1.28,0-2,0h-1a48.23,48.23,0,0,1-34.78-14.92,51.56,51.56,0,0,1-14.59-35.95,51.1,51.1,0,0,1,100.69-12L439.08,66a85,85,0,1,0-143.65,78.31,82.26,82.26,0,0,0,59.1,25.2l1.86,0h1.13a48.28,48.28,0,0,1,34.79,14.89,51.57,51.57,0,0,1,14.56,36A50.9,50.9,0,0,1,356,271.25a48.91,48.91,0,0,1-35.29-14.83,55.44,55.44,0,0,1-15.59-36.72,89.31,89.31,0,0,0-25.26-59.16,83.46,83.46,0,0,0-118.94,0,89.17,89.17,0,0,0-25.3,59.18,55.37,55.37,0,0,1-15.56,36.73,48.91,48.91,0,0,1-35.31,14.81,50.86,50.86,0,1,1,0-101.71V135.63A50.86,50.86,0,1,1,134.11,72.5l33.26-6.74A84.77,84.77,0,1,0,33.89,152.58,84.78,84.78,0,0,0,84.77,305.16a83,83,0,0,0,59.48-24.94,89.27,89.27,0,0,0,25.27-59.15,55.28,55.28,0,0,1,15.57-36.74,49.56,49.56,0,0,1,70.62,0,55.37,55.37,0,0,1,15.55,36.77,89.38,89.38,0,0,0,25.3,59.12,83,83,0,0,0,59.35,25H356A85,85,0,0,0,416.63,160.8Zm-60.9-25.17h0"/><path id="path26" class="cls-1" d="M10.1,377.14v34.29H22.23V377.14a24.28,24.28,0,0,1,24.26-24.26V340.75A36.39,36.39,0,0,0,10.1,377.14"/><path id="path28" class="cls-1" d="M198.15,377.14a36.39,36.39,0,0,0-72.78,0v34.29H137.5V377.18a24.26,24.26,0,0,1,48.52,0v34.25h12.13V377.14h0"/><path id="path30" class="cls-1" d="M280.52,377.14a36.39,36.39,0,0,0-72.78,0h0v34.29h12.13V377.18a24.26,24.26,0,0,1,48.52,0v34.25h12.13V377.14"/><path id="path32" class="cls-1" d="M81.2,352.88a24.31,24.31,0,0,1,23.49,18.19h-47A24.3,24.3,0,0,1,81.2,352.88Zm36.38,24.26a36.39,36.39,0,1,0-72.78,0v.08a36.4,36.4,0,0,0,36.4,36.39V401.48A24.3,24.3,0,0,1,57.68,383.2h59.89v-6.06"/><path id="path34" class="cls-1" d="M324.69,352.88a24.32,24.32,0,0,1,23.5,18.19h-47a24.3,24.3,0,0,1,23.49-18.19Zm36.39,24.26a36.39,36.39,0,1,0-72.77,0v.08a36.38,36.38,0,0,0,36.38,36.39V401.48a24.3,24.3,0,0,1-23.51-18.28h59.89v-6.06"/><path id="path36" class="cls-1" d="M368.87,377.14H381A24.24,24.24,0,0,1,420.16,358l9.66-7.73a36.39,36.39,0,0,0-60.95,26.85"/><path id="path38" class="cls-1" d="M411.33,377.22a24.24,24.24,0,0,1-39.12,19.16l-9.66,7.73a36.39,36.39,0,0,0,60.91-26.89H411.33"/></g></g></svg>