<svg xmlns="http://www.w3.org/2000/svg" viewBox="0 0 329.95 154.04"><defs><style>.cls-1,.cls-2{fill:none;stroke:#1d1d1b;stroke-miterlimit:10;}.cls-1{stroke-width:2px;}.cls-2{stroke-width:3px;}.cls-3,.cls-4{fill:#1d1d1b;}.cls-4{font-size:36px;font-family:MyriadPro-Regular, Myriad Pro;}</style></defs><g id="Layer_2" data-name="Layer 2"><g id="Layer_1-2" data-name="Layer 1"><path class="cls-1" d="M93.1,128.93c-.42.53-8.21,10-18.39,8.4s-14.57-13-15.63-19.14C56.2,101.52,71,81.91,83.64,82.9,90.46,83.43,97.39,90,97.35,96c-.06,8.62-14.61,16.06-26.79,15.84a32.28,32.28,0,0,1-17.86-6.17"/><path class="cls-1" d="M33.16,125.3c-.34.43-6.62,8.1-14.83,6.78S6.58,121.59,5.72,116.65C3.4,103.2,15.31,87.38,25.53,88.18c5.5.43,11.09,5.72,11.06,10.55-.05,7-11.79,13-21.61,12.77a26,26,0,0,1-14.4-5"/><path class="cls-1" d="M162,132.69c-.51.64-9.85,12.05-22.09,10.09s-17.49-15.62-18.76-23c-3.46-20,14.28-43.57,29.49-42.38,8.19.64,16.52,8.52,16.47,15.7-.08,10.35-17.56,19.29-32.17,19a38.7,38.7,0,0,1-21.45-7.4"/><path class="cls-1" d="M322.29,139.57c-.66.83-12.87,15.73-28.84,13.17s-22.84-20.39-24.5-30c-4.52-26.14,18.64-56.89,38.5-55.34,10.7.84,21.57,11.12,21.5,20.5-.09,13.52-22.91,25.19-42,24.84-13.08-.25-23-6.11-28-9.67"/><path class="cls-1" d="M237.15,135.22c-.56.71-11,13.4-24.56,11.21s-19.45-17.36-20.87-25.55c-3.85-22.27,15.88-48.46,32.8-47.14,9.1.71,18.37,9.48,18.31,17.47-.08,11.51-19.52,21.45-35.78,21.15a43.09,43.09,0,0,1-23.85-8.23"/><line class="cls-2" x1="0.58" y1="49.36" x2="307.43" y2="49.36"/><polygon class="cls-3" points="303.05 64.32 328.95 49.37 303.05 34.41 303.05 64.32"/><text class="cls-4" transform="translate(75.03 30.13)">10 à 50cm</text></g></g></svg>