<svg xmlns="http://www.w3.org/2000/svg" viewBox="0 0 386 127.64"><defs><style>.cls-1,.cls-2,.cls-3,.cls-4{fill:none;stroke:#1d1d1b;}.cls-1,.cls-2,.cls-4{stroke-miterlimit:10;}.cls-2,.cls-3{stroke-width:2px;}.cls-3{stroke-linecap:round;stroke-linejoin:round;}.cls-4{stroke-width:3px;}.cls-5,.cls-6{fill:#1d1d1b;}.cls-6{font-size:36px;font-family:MyriadPro-Regular, Myriad Pro;}</style></defs><g id="Layer_2" data-name="Layer 2"><g id="Layer_1-2" data-name="Layer 1"><line class="cls-1" x1="102.77" y1="0.5" x2="386" y2="0.5"/><path class="cls-1" d="M383.62,127.14H106.17"/><path class="cls-2" d="M118.43,125.44c47.57-28.48,63.18-60.72,69.1-78C193.4,30.39,197.37,5.75,192,3.56,186.34,1.29,171.45,22,162.68,39.65c-15.75,31.75-24.16,78.8-10.55,85.79,14.25,7.31,52.7-29.32,68.76-70.13,8.52-21.63,12.46-48.77,6.81-51.07-6-2.43-22.66,23-32.34,44.6C182.15,78.3,174,118.47,185.15,124.41c2.78,1.48,8.18,1.6,19.74-7.48"/><path class="cls-3" d="M241.45,123.89c17.6-10.6,41.73-28.8,59.24-58.56C315.21,40.66,324.63,8.94,319.41,6.1s-26.16,21.3-38.13,48.34c-11.87,26.82-17.28,62.08-7.49,67.06,5.82,3,17.15-4.49,21.49-13.6,2.75-5.78,1.53-5.1,8.13-17,.45-.82,5.39-6.91,8.17-5.79,3.25,1.3,2,11.88,1,19.74a117.47,117.47,0,0,1-3.06,16c4.5-18.3,5.45-19.83,10.67-27.3,1.7-2.42,5.88-7.7,9.19-6.81,4.45,1.2,3.08,6.74,3,15.05-.18,10.84-1.6,16.47,1.65,19.51,1.84,1.72,3.22,1.53,5.15.92a9,9,0,0,0,5.79-7.15"/><line class="cls-4" x1="95.7" y1="14.16" x2="95.7" y2="115.61"/><polygon class="cls-5" points="88.22 16.34 95.7 3.39 103.18 16.34 88.22 16.34"/><polygon class="cls-5" points="88.22 113.42 95.7 126.37 103.18 113.42 88.22 113.42"/><text class="cls-6" transform="translate(0 75.61)">10cm</text></g></g></svg>