<svg xmlns="http://www.w3.org/2000/svg" viewBox="0 0 145.98 104.88"><defs><style>.cls-1,.cls-3,.cls-7{fill:#1d1d1b;}.cls-1,.cls-2,.cls-3,.cls-5,.cls-6{stroke:#1d1d1b;stroke-miterlimit:10;}.cls-1,.cls-2{stroke-width:2px;}.cls-2,.cls-5,.cls-6{fill:none;}.cls-4{opacity:0.67;}.cls-6{stroke-dasharray:5.66 5.66;}</style></defs><g id="Layer_2" data-name="Layer 2"><g id="Layer_1-2" data-name="Layer 1"><circle class="cls-1" cx="34.43" cy="81.61" r="15.49"/><rect class="cls-2" x="127.96" y="73.1" width="17.02" height="17.02"/><circle class="cls-3" cx="34.43" cy="8.24" r="7.74"/><g class="cls-4"><path class="cls-5" d="M123.45,93.78c-.65.44-1.5,1-2.52,1.62"/><path class="cls-6" d="M116,98.1a61.17,61.17,0,0,1-29.28,6.23A60.64,60.64,0,0,1,64,98.9"/><path class="cls-5" d="M61.42,97.67c-1-.48-1.83-1-2.64-1.43"/><polygon class="cls-7" points="56.27 101.81 62.71 91.5 54.34 93.44 56.27 101.81"/></g><g class="cls-4"><path class="cls-5" d="M11.1,77.35c-.44-.65-1-1.49-1.62-2.52"/><path class="cls-6" d="M6.78,69.87a60.5,60.5,0,0,1-.8-52"/><path class="cls-5" d="M7.21,15.32c.48-.94,1-1.82,1.43-2.63"/><polygon class="cls-7" points="3.07 10.18 13.38 16.61 11.44 8.24 3.07 10.18"/></g></g></g></svg>